<mxfile host="app.diagrams.net" modified="2023-11-30T16:42:35.049Z" agent="Mozilla/5.0 (Windows NT 10.0; Win64; x64) AppleWebKit/537.36 (KHTML, like Gecko) Chrome/119.0.0.0 Safari/537.36" version="22.1.5" etag="-Gsbuf3prwtVi8Nf_zfI" type="github">
  <diagram name="Page-1" id="hcgY14wcNi3AoFEIS08e">
    <mxGraphModel>
      <root>
        <mxCell id="0" />
        <mxCell id="1" parent="0" />
      </root>
    </mxGraphModel>
  </diagram>
</mxfile>
